<svg width="512" height="512" viewBox="0 0 512 512" xmlns="http://www.w3.org/2000/svg">
  <defs>
    <linearGradient id="bg" x1="0" y1="0" x2="0" y2="1">
      <stop offset="0" stop-color="#1c8577"/>
      <stop offset="1" stop-color="#0a3e37"/>
    </linearGradient>
    <radialGradient id="glow" cx="0.5" cy="0.42" r="0.62">
      <stop offset="0" stop-color="#249e8c"/>
      <stop offset="1" stop-color="#0f4a41"/>
    </radialGradient>
    <linearGradient id="amber" x1="0" y1="0" x2="0" y2="1">
      <stop offset="0" stop-color="#e6b25c"/>
      <stop offset="1" stop-color="#c68a34"/>
    </linearGradient>
    <filter id="sh" x="-25%" y="-25%" width="150%" height="150%">
      <feDropShadow dx="0" dy="7" stdDeviation="8" flood-color="#052620" flood-opacity="0.55"/>
    </filter>
  </defs>
  <rect x="26" y="26" width="460" height="460" rx="104" fill="url(#bg)"/><rect x="41" y="41" width="430" height="430" rx="90" fill="none" stroke="#8fd9cc" stroke-opacity="0.5" stroke-width="7"/><circle cx="256" cy="256" r="176" fill="url(#glow)" stroke="#8fd9cc" stroke-opacity="0.32" stroke-width="5"/>
  <!-- MOTIF -->
  <g transform="translate(256,266)" filter="url(#sh)">
    
    <rect x="-118" y="-30" width="236" height="14" fill="#052620"/>
    <rect x="-108" y="-100" width="90" height="70" rx="10" fill="#f2e9d8" stroke="#052620" stroke-width="7"/>
    <rect x="14" y="-112" width="104" height="82" rx="10" fill="url(#amber)" stroke="#052620" stroke-width="7"/>
    <rect x="-90" y="-84" width="54" height="10" rx="4" fill="#052620" fill-opacity="0.55"/>
    <rect x="30" y="-96" width="72" height="10" rx="4" fill="#052620" fill-opacity="0.4"/>
    <rect x="-118" y="30" width="14" height="94" fill="#052620"/>
    <rect x="104" y="30" width="14" height="94" fill="#052620"/>
    <rect x="-92" y="-4" width="200" height="92" rx="10" fill="#f2e9d8" stroke="#052620" stroke-width="7"/>
    <g fill="#052620">
      <circle cx="-64" cy="30" r="8"/><circle cx="-64" cy="60" r="8"/>
    </g>
    <g stroke="#052620" stroke-width="8" stroke-linecap="round">
      <line x1="-40" y1="30" x2="60" y2="30"/>
      <line x1="-40" y1="60" x2="80" y2="60"/>
    </g>
    <path d="M 30 100 l 20 22 l 44 -48" fill="none" stroke="url(#amber)" stroke-width="15" stroke-linecap="round" stroke-linejoin="round"/>
    
  </g>
</svg>